<?xml version="1.0" encoding="UTF-8" standalone="no"?>
<!DOCTYPE svg PUBLIC "-//W3C//DTD SVG 1.1//EN" "http://www.w3.org/Graphics/SVG/1.1/DTD/svg11.dtd">
<svg width="100%" height="100%" viewBox="0 0 378 265" version="1.1" xmlns="http://www.w3.org/2000/svg" xmlns:xlink="http://www.w3.org/1999/xlink" xml:space="preserve" xmlns:serif="http://www.serif.com/" style="fill-rule:evenodd;clip-rule:evenodd;stroke-linejoin:round;stroke-miterlimit:2;">
    <g transform="matrix(1.33333,0,0,1.33333,0,0)">
        <g id="Copper" transform="matrix(1,0,0,1,84.3483,-111.509)">
            <g transform="matrix(0.0415355,-1.106e-33,-1.106e-33,-0.0415355,-124.476,468.172)">
                <path d="M2087,8223C2060,8193 2013,8148 1982,8123C1912,8067 1810,7969 1810,7957C1810,7952 1852,7986 1904,8032C1956,8078 2025,8139 2058,8168L2119,8220L2113,8163C2111,8131 2100,8044 2089,7970C2078,7896 2065,7786 2059,7725C2054,7665 2047,7607 2044,7598C2041,7586 2044,7580 2054,7580C2063,7580 2070,7588 2070,7598C2070,7641 2092,7847 2110,7975C2121,8052 2131,8145 2132,8183C2133,8220 2136,8250 2140,8250C2143,8250 2178,8222 2216,8187C2255,8152 2302,8114 2321,8103C2356,8081 2400,8029 2400,8010C2400,8005 2407,8000 2415,8000C2458,8000 2413,8050 2250,8185C2210,8218 2170,8253 2162,8263C2153,8272 2143,8280 2140,8279C2137,8279 2113,8254 2087,8223Z" style="fill:rgb(115,115,115);fill-rule:nonzero;"/>
            </g>
            <g transform="matrix(0.0415355,-1.106e-33,-1.106e-33,-0.0415355,-124.476,468.172)">
                <path d="M1190,8245C1195,8232 1210,8204 1223,8183C1237,8162 1268,8106 1293,8059C1319,8011 1358,7951 1380,7924C1403,7897 1435,7846 1452,7810C1492,7724 1610,7511 1621,7505C1644,7490 1653,7541 1670,7795C1682,7968 1695,8083 1713,8178C1721,8218 1724,8253 1719,8255C1706,8264 1700,8245 1690,8163C1684,8120 1675,8051 1669,8010C1664,7969 1655,7863 1650,7775C1639,7600 1632,7540 1622,7540C1613,7540 1592,7576 1503,7750C1462,7830 1415,7909 1400,7925C1384,7942 1351,7991 1326,8035C1302,8079 1262,8150 1238,8192C1196,8267 1171,8295 1190,8245Z" style="fill:rgb(115,115,115);fill-rule:nonzero;"/>
            </g>
            <g transform="matrix(0.0415355,-1.106e-33,-1.106e-33,-0.0415355,-124.476,468.172)">
                <path d="M2745,8220C2628,8158 2521,8083 2522,8063C2523,8053 2516,8000 2507,7945C2488,7830 2460,7627 2460,7609C2460,7574 2470,7618 2489,7735C2501,7807 2513,7875 2515,7888C2519,7905 2549,7924 2646,7971C2714,8004 2768,8034 2766,8039C2761,8047 2591,7969 2546,7937L2518,7917L2525,7970C2536,8050 2551,8076 2611,8119C2670,8161 2817,8240 2838,8240C2844,8240 2850,8245 2850,8250C2850,8268 2821,8260 2745,8220Z" style="fill:rgb(115,115,115);fill-rule:nonzero;"/>
            </g>
            <g transform="matrix(0.0415355,-1.106e-33,-1.106e-33,-0.0415355,-124.476,468.172)">
                <path d="M3267,8147C3208,8091 3159,8039 3160,8032C3160,8015 3233,7983 3290,7974C3315,7970 3338,7963 3341,7957C3345,7951 3354,7951 3365,7957C3391,7972 3369,7982 3287,7997C3224,8007 3190,8022 3190,8040C3190,8046 3277,8134 3345,8198C3357,8208 3361,8207 3369,8191C3385,8162 3407,8092 3424,8020C3437,7960 3437,7953 3420,7920C3395,7871 3286,7739 3206,7660C3146,7601 3126,7570 3149,7570C3154,7570 3170,7587 3186,7608C3202,7628 3242,7674 3275,7710C3366,7809 3409,7861 3436,7906L3461,7948L3431,8061C3414,8124 3395,8191 3388,8212L3375,8248L3267,8147Z" style="fill:rgb(115,115,115);fill-rule:nonzero;"/>
            </g>
            <g transform="matrix(0.0415355,-1.106e-33,-1.106e-33,-0.0415355,-124.476,468.172)">
                <path d="M2915,7898C2882,7888 2839,7875 2820,7869C2778,7856 2736,7831 2744,7823C2747,7820 2755,7822 2762,7828C2774,7837 2891,7873 2958,7887C2970,7890 2983,7896 2985,7901C2996,7917 2973,7917 2915,7898Z" style="fill:rgb(115,115,115);fill-rule:nonzero;"/>
            </g>
            <g transform="matrix(0.0415355,-1.106e-33,-1.106e-33,-0.0415355,-128.643,477.346)">
                <path d="M3703,7673C3688,7646 3662,7605 3644,7580C3612,7533 3590,7472 3610,7485C3616,7489 3626,7503 3631,7517C3636,7531 3665,7580 3695,7625C3752,7710 3757,7720 3740,7720C3735,7720 3718,7699 3703,7673Z" style="fill:rgb(115,115,115);fill-rule:nonzero;"/>
            </g>
            <g transform="matrix(0.0415355,-1.106e-33,-1.106e-33,-0.0415355,-128.643,477.346)">
                <path d="M3938,7658C3917,7628 3900,7599 3900,7593C3900,7567 3876,7578 3824,7628C3793,7658 3766,7679 3762,7676C3756,7669 3879,7540 3891,7540C3894,7540 3905,7557 3914,7578C3924,7599 3942,7630 3955,7646L3978,7675L4026,7620C4053,7590 4086,7555 4099,7542C4114,7529 4120,7516 4114,7511C4068,7468 3823,7280 3814,7280C3808,7280 3796,7290 3788,7303C3764,7338 3649,7475 3639,7478C3613,7488 3638,7449 3710,7368C3754,7318 3790,7274 3790,7270C3790,7249 3824,7252 3847,7274C3861,7288 3892,7314 3917,7332C4016,7405 4128,7500 4134,7517C4139,7530 4128,7547 4093,7580C4067,7605 4029,7645 4010,7669L3975,7712L3938,7658Z" style="fill:rgb(115,115,115);fill-rule:nonzero;"/>
            </g>
            <g transform="matrix(0.0415355,-1.106e-33,-1.106e-33,-0.0415355,-128.643,477.346)">
                <path d="M3733,7589C3713,7563 3689,7510 3699,7510C3711,7510 3752,7579 3748,7592C3746,7598 3739,7596 3733,7589Z" style="fill:rgb(115,115,115);fill-rule:nonzero;"/>
            </g>
            <g transform="matrix(0.0415355,-1.106e-33,-1.106e-33,-0.0415355,-124.476,468.172)">
                <path d="M2879,7566C2877,7564 2735,7554 2565,7546C2227,7528 2033,7513 1992,7499C1972,7493 1978,7492 2015,7495C2209,7515 2598,7537 2850,7543C2886,7544 2917,7550 2920,7555C2925,7565 2888,7575 2879,7566Z" style="fill:rgb(115,115,115);fill-rule:nonzero;"/>
            </g>
            <g transform="matrix(0.0415355,-1.106e-33,-1.106e-33,-0.0415355,-128.643,477.346)">
                <path d="M3757,7553C3755,7548 3750,7532 3746,7515C3740,7487 3741,7486 3755,7504C3763,7515 3770,7532 3770,7542C3770,7561 3764,7565 3757,7553Z" style="fill:rgb(115,115,115);fill-rule:nonzero;"/>
            </g>
            <g transform="matrix(0.0415355,-1.106e-33,-1.106e-33,-0.0415355,-124.476,468.172)">
                <path d="M2510,7468C2386,7463 2265,7455 2240,7450C2207,7443 2227,7442 2320,7446C2447,7451 2764,7460 2788,7460C2795,7460 2798,7465 2795,7470C2792,7476 2777,7479 2762,7478C2747,7478 2634,7473 2510,7468Z" style="fill:rgb(115,115,115);fill-rule:nonzero;"/>
            </g>
            <g transform="matrix(0.0415355,-1.106e-33,-1.106e-33,-0.0415355,-128.643,477.346)">
                <path d="M4358,6405C4355,6399 4356,6373 4361,6346C4366,6319 4369,6296 4368,6295C4366,6294 4344,6279 4318,6261C4261,6223 4247,6200 4256,6163C4264,6133 4410,5883 4448,5836L4470,5807L4525,5828C4555,5840 4580,5845 4580,5841C4580,5827 4659,5730 4670,5730C4691,5730 4678,5756 4645,5783C4626,5798 4610,5817 4610,5825C4610,5832 4604,5841 4598,5844C4589,5847 4593,5855 4610,5867C4623,5877 4647,5898 4663,5913C4691,5941 4692,5941 4674,5968C4664,5983 4627,6051 4592,6120C4532,6239 4512,6247 4567,6131C4584,6095 4589,6075 4582,6072C4576,6070 4542,6046 4508,6018C4422,5949 4402,5940 4383,5965C4356,6003 4289,6132 4294,6137C4297,6140 4312,6143 4327,6145C4411,6152 4493,6194 4520,6243C4534,6270 4534,6272 4507,6296C4477,6322 4450,6326 4418,6309C4393,6295 4391,6298 4376,6362C4370,6391 4362,6410 4358,6405ZM4474,6290C4527,6270 4493,6215 4410,6184C4326,6153 4259,6157 4273,6193C4277,6205 4363,6270 4374,6270C4376,6270 4381,6259 4384,6245C4390,6220 4404,6213 4415,6229C4418,6234 4416,6241 4410,6245C4391,6257 4399,6288 4423,6293C4435,6295 4446,6298 4447,6299C4448,6299 4460,6296 4474,6290ZM4582,5990C4560,5970 4520,5942 4493,5927C4450,5904 4441,5902 4430,5914C4421,5926 4424,5932 4448,5944C4473,5957 4524,5996 4580,6044C4592,6055 4597,6054 4608,6041C4619,6027 4616,6020 4582,5990ZM4648,5966C4657,5946 4655,5939 4632,5917C4603,5890 4509,5840 4487,5840C4479,5840 4465,5848 4456,5859C4440,5877 4440,5878 4467,5888C4500,5899 4606,5965 4615,5980C4625,5996 4636,5992 4648,5966Z" style="fill:rgb(115,115,115);fill-rule:nonzero;"/>
            </g>
            <g transform="matrix(0.0415355,-1.106e-33,-1.106e-33,-0.0415355,-128.643,477.346)">
                <path d="M4470,6121C4456,6116 4457,6113 4472,6098C4482,6088 4490,6084 4490,6089C4490,6094 4502,6100 4518,6102L4545,6105L4515,6116C4499,6122 4478,6124 4470,6121Z" style="fill:rgb(115,115,115);fill-rule:nonzero;"/>
            </g>
            <g transform="matrix(0.0415355,-1.106e-33,-1.106e-33,-0.0415355,-128.643,477.346)">
                <path d="M4378,6061C4367,6056 4367,6052 4382,6038C4392,6028 4400,6025 4400,6030C4400,6036 4409,6040 4419,6040C4430,6040 4441,6044 4444,6049C4451,6059 4399,6069 4378,6061Z" style="fill:rgb(115,115,115);fill-rule:nonzero;"/>
            </g>
            <g transform="matrix(0.0415355,-1.106e-33,-1.106e-33,-0.0415355,-128.643,477.346)">
                <path d="M4368,4770C4356,4742 4345,4730 4331,4730C4303,4730 4305,4720 4337,4694C4362,4674 4363,4670 4352,4645C4335,4609 4342,4604 4389,4620C4426,4632 4444,4631 4498,4615C4526,4606 4527,4623 4500,4650C4474,4676 4475,4682 4506,4720C4538,4757 4528,4776 4486,4760C4447,4746 4443,4747 4423,4780C4400,4820 4388,4818 4368,4770Z" style="fill:rgb(115,115,115);fill-rule:nonzero;"/>
            </g>
        </g>
    </g>
</svg>
