<?xml version="1.0" encoding="UTF-8" standalone="no"?>
<!DOCTYPE svg PUBLIC "-//W3C//DTD SVG 1.1//EN" "http://www.w3.org/Graphics/SVG/1.1/DTD/svg11.dtd">
<svg width="100%" height="100%" viewBox="0 0 378 265" version="1.1" xmlns="http://www.w3.org/2000/svg" xmlns:xlink="http://www.w3.org/1999/xlink" xml:space="preserve" xmlns:serif="http://www.serif.com/" style="fill-rule:evenodd;clip-rule:evenodd;stroke-linejoin:round;stroke-miterlimit:2;">
    <g transform="matrix(1.33333,0,0,1.33333,0,0)">
        <g transform="matrix(0.0415355,-3.46945e-18,-3.46945e-18,-0.0415355,-44.2951,365.837)">
            <g id="Mask">
                <path d="M6727,7527C6690,7460 6685,7457 6646,7471C6599,7488 6593,7478 6624,7437C6655,7396 6655,7395 6630,7363C6619,7349 6610,7333 6610,7329C6610,7315 6639,7318 6676,7336L6710,7352L6765,7294C6824,7231 6833,7236 6805,7315L6791,7355L6840,7401C6868,7427 6890,7452 6890,7458C6890,7463 6867,7467 6838,7466C6787,7465 6786,7465 6779,7499C6775,7517 6766,7538 6758,7546C6747,7558 6742,7555 6727,7527Z" style="fill:rgb(186,175,75);fill-rule:nonzero;"/>
            </g>
        </g>
    </g>
</svg>
