<?xml version="1.0" encoding="UTF-8" standalone="no"?>
<!DOCTYPE svg PUBLIC "-//W3C//DTD SVG 1.1//EN" "http://www.w3.org/Graphics/SVG/1.1/DTD/svg11.dtd">
<svg width="100%" height="100%" viewBox="0 0 378 265" version="1.1" xmlns="http://www.w3.org/2000/svg" xmlns:xlink="http://www.w3.org/1999/xlink" xml:space="preserve" xmlns:serif="http://www.serif.com/" style="fill-rule:evenodd;clip-rule:evenodd;stroke-linecap:round;stroke-linejoin:round;stroke-miterlimit:1.5;">
    <g transform="matrix(1.33333,0,0,1.33333,0,0)">
        <g id="Panel-Edge" serif:id="Panel Edge" transform="matrix(1,0,0,1,84.3483,-111.509)">
            <g transform="matrix(1.7409,0,0,0.506833,-70.7716,112.492)">
                <path d="M155.028,18.99C155.028,7.519 152.316,-1.795 148.977,-1.795L-1.748,-1.795C-5.087,-1.795 -7.799,7.519 -7.799,18.99L-7.799,368.777C-7.799,380.249 -5.087,389.562 -1.748,389.562L148.977,389.562C152.316,389.562 155.028,380.249 155.028,368.777L155.028,18.99Z" style="fill:none;stroke:black;stroke-width:0.23px;"/>
            </g>
            <g transform="matrix(1.19053,0,0,1.19053,-136.698,36.1071)">
                <circle cx="82.385" cy="192.471" r="14.881" style="fill:white;"/>
            </g>
            <g transform="matrix(1.19053,0,0,1.19053,-72.6979,36.2413)">
                <circle cx="82.385" cy="192.471" r="14.881" style="fill:white;"/>
            </g>
            <g transform="matrix(1.19053,0,0,1.19053,-8.69786,36.2413)">
                <circle cx="82.385" cy="192.471" r="14.881" style="fill:white;"/>
            </g>
            <g transform="matrix(1.19053,0,0,1.19053,55.3021,36.2413)">
                <circle cx="82.385" cy="192.471" r="14.881" style="fill:white;"/>
            </g>
            <g transform="matrix(1.19053,0,0,1.19053,-136.761,-25.8929)">
                <circle cx="82.385" cy="192.471" r="14.881" style="fill:white;"/>
            </g>
            <g transform="matrix(1.19053,0,0,1.19053,-72.7608,-25.7587)">
                <circle cx="82.385" cy="192.471" r="14.881" style="fill:white;"/>
            </g>
            <g transform="matrix(1.19053,0,0,1.19053,-8.63487,-25.7587)">
                <circle cx="82.385" cy="192.471" r="14.881" style="fill:white;"/>
            </g>
            <g transform="matrix(7.0791e-17,-1.1561,1.1561,7.0791e-17,-310.677,193.937)">
                <circle cx="39.756" cy="318.363" r="9.213" style="fill:white;"/>
            </g>
            <g transform="matrix(7.0791e-17,-1.1561,1.1561,7.0791e-17,-273.677,193.937)">
                <circle cx="39.756" cy="318.363" r="9.213" style="fill:white;"/>
            </g>
            <g transform="matrix(5.88738e-17,-0.961482,0.961482,5.88738e-17,-180.717,186.2)">
                <circle cx="39.756" cy="318.363" r="9.213" style="fill:white;"/>
            </g>
            <g transform="matrix(5.88738e-17,-0.961482,0.961482,5.88738e-17,-151.717,186.2)">
                <circle cx="39.756" cy="318.363" r="9.213" style="fill:white;"/>
            </g>
            <g transform="matrix(5.88738e-17,-0.961482,0.961482,5.88738e-17,-122.717,186.2)">
                <circle cx="39.756" cy="318.363" r="9.213" style="fill:white;"/>
            </g>
            <g transform="matrix(1.19053,0,0,1.19053,55.3651,-25.7587)">
                <circle cx="82.385" cy="192.471" r="14.881" style="fill:white;"/>
            </g>
        </g>
        <g id="mnt-panel" serif:id="mnt panel" transform="matrix(1,0,0,1,84.3483,-111.509)">
            <g transform="matrix(1.06841,0,0,1.06841,-156.638,220.721)">
                <circle cx="140.357" cy="12.662" r="4.245" style="fill:white;"/>
            </g>
            <g transform="matrix(1.06841,0,0,1.06841,-28.5123,220.721)">
                <circle cx="140.357" cy="12.662" r="4.245" style="fill:white;"/>
            </g>
        </g>
    </g>
</svg>
