<?xml version="1.0" encoding="UTF-8" standalone="no"?>
<!DOCTYPE svg PUBLIC "-//W3C//DTD SVG 1.1//EN" "http://www.w3.org/Graphics/SVG/1.1/DTD/svg11.dtd">
<svg width="100%" height="100%" viewBox="0 0 378 265" version="1.1" xmlns="http://www.w3.org/2000/svg" xmlns:xlink="http://www.w3.org/1999/xlink" xml:space="preserve" xmlns:serif="http://www.serif.com/" style="fill-rule:evenodd;clip-rule:evenodd;stroke-linecap:round;stroke-linejoin:round;stroke-miterlimit:1.5;">
    <g transform="matrix(1.33333,0,0,1.33333,0,0)">
        <g transform="matrix(1.7409,0,0,0.506833,13.5767,0.9823)">
            <g id="Panel-Edge" serif:id="Panel Edge">
                <path d="M155.028,18.99C155.028,7.519 152.316,-1.795 148.977,-1.795L-1.748,-1.795C-5.087,-1.795 -7.799,7.519 -7.799,18.99L-7.799,368.777C-7.799,380.249 -5.087,389.562 -1.748,389.562L148.977,389.562C152.316,389.562 155.028,380.249 155.028,368.777L155.028,18.99Z" style="fill:none;stroke:black;stroke-width:0.23px;"/>
            </g>
        </g>
        <g id="mnt-panel" serif:id="mnt panel" transform="matrix(1,0,0,1,84.3483,-111.509)">
            <g transform="matrix(1.06841,0,0,1.06841,-156.638,220.721)">
                <circle cx="140.357" cy="12.662" r="4.245" style="fill:white;"/>
            </g>
            <g transform="matrix(1.06841,0,0,1.06841,-28.5123,220.721)">
                <circle cx="140.357" cy="12.662" r="4.245" style="fill:white;"/>
            </g>
        </g>
        <g id="mnt" transform="matrix(1,0,0,1,84.3483,-111.509)">
            <g transform="matrix(1.33551,0,0,1.33551,-130.065,165.465)">
                <circle cx="140.357" cy="12.662" r="4.245" style="fill:rgb(33,85,27);"/>
            </g>
            <g transform="matrix(1.33551,0,0,1.33551,-257.624,278.851)">
                <circle cx="140.357" cy="12.662" r="4.245" style="fill:rgb(33,85,27);"/>
            </g>
            <g transform="matrix(1.33551,0,0,1.33551,-2.50603,278.851)">
                <circle cx="140.357" cy="12.662" r="4.245" style="fill:rgb(33,85,27);"/>
            </g>
        </g>
        <g id="Silk">
        </g>
        <g id="Copper">
        </g>
    </g>
</svg>
