<?xml version="1.0" encoding="UTF-8" standalone="no"?>
<!DOCTYPE svg PUBLIC "-//W3C//DTD SVG 1.1//EN" "http://www.w3.org/Graphics/SVG/1.1/DTD/svg11.dtd">
<svg width="100%" height="100%" viewBox="0 0 378 265" version="1.1" xmlns="http://www.w3.org/2000/svg" xmlns:xlink="http://www.w3.org/1999/xlink" xml:space="preserve" xmlns:serif="http://www.serif.com/" style="fill-rule:evenodd;clip-rule:evenodd;stroke-linejoin:round;stroke-miterlimit:2;">
    <g transform="matrix(1.33333,0,0,1.33333,0,0)">
        <g id="Silk" transform="matrix(1,0,0,1,84.3483,-111.509)">
            <g transform="matrix(0.0415355,-1.106e-33,-1.106e-33,-0.0415355,-128.643,477.346)">
                <path d="M6876,8458C6867,8422 6869,8372 6880,8365C6886,8362 6890,8367 6890,8378C6890,8409 6901,8411 6932,8385C6948,8371 6966,8363 6972,8366C6979,8370 6970,8384 6950,8400L6917,8427L6963,8445C6989,8455 7010,8467 7010,8471C7010,8484 6997,8482 6949,8461C6903,8440 6887,8442 6897,8465C6900,8473 6898,8480 6892,8480C6887,8480 6880,8470 6876,8458Z" style="fill:white;fill-rule:nonzero;"/>
            </g>
            <g transform="matrix(0.0415355,-1.106e-33,-1.106e-33,-0.0415355,-128.643,477.346)">
                <path d="M7532,8456C7521,8443 7522,8334 7533,8324C7537,8320 7540,8324 7540,8333C7540,8343 7547,8350 7555,8350C7577,8350 7639,8382 7644,8396C7651,8414 7544,8472 7532,8456ZM7620,8399C7620,8395 7610,8390 7598,8387C7585,8385 7567,8379 7558,8375C7543,8369 7540,8374 7540,8408L7540,8448L7580,8427C7602,8415 7620,8402 7620,8399Z" style="fill:white;fill-rule:nonzero;"/>
            </g>
            <g transform="matrix(0.0415355,-1.106e-33,-1.106e-33,-0.0415355,-128.643,477.346)">
                <path d="M6640,8415C6592,8354 6594,8338 6650,8324C6675,8318 6698,8315 6703,8317C6716,8325 6700,8340 6679,8340C6668,8340 6650,8345 6639,8350C6620,8360 6621,8363 6655,8404C6674,8428 6690,8450 6690,8454C6690,8470 6672,8456 6640,8415Z" style="fill:white;fill-rule:nonzero;"/>
            </g>
            <g transform="matrix(0.0415355,-1.106e-33,-1.106e-33,-0.0415355,-128.643,477.346)">
                <path d="M7292,8413C7286,8386 7278,8356 7275,8345C7269,8327 7271,8328 7289,8349C7301,8362 7310,8383 7310,8396C7310,8426 7326,8427 7341,8398C7358,8365 7359,8365 7374,8385C7386,8402 7388,8401 7399,8367C7413,8327 7436,8315 7426,8353C7416,8394 7390,8450 7381,8450C7376,8450 7369,8442 7365,8433C7359,8417 7357,8417 7340,8438C7313,8470 7305,8466 7292,8413Z" style="fill:white;fill-rule:nonzero;"/>
            </g>
            <g transform="matrix(0.0415355,-1.106e-33,-1.106e-33,-0.0415355,-128.643,477.346)">
                <path d="M6756,8399C6752,8371 6751,8346 6753,8343C6762,8335 6840,8365 6836,8375C6834,8380 6826,8383 6819,8381C6780,8371 6776,8375 6779,8413C6783,8469 6764,8457 6756,8399Z" style="fill:white;fill-rule:nonzero;"/>
            </g>
            <g transform="matrix(0.0415355,-1.106e-33,-1.106e-33,-0.0415355,-128.643,477.346)">
                <path d="M7461,8418C7460,8398 7465,8369 7472,8353C7489,8310 7492,8347 7476,8405L7462,8455L7461,8418Z" style="fill:white;fill-rule:nonzero;"/>
            </g>
            <g transform="matrix(0.0415355,-1.106e-33,-1.106e-33,-0.0415355,-128.643,477.346)">
                <path d="M7725,8439C7721,8434 7717,8411 7716,8390C7715,8368 7711,8348 7707,8344C7703,8340 7700,8332 7700,8326C7700,8320 7706,8322 7714,8330C7721,8338 7730,8369 7733,8398C7739,8450 7737,8459 7725,8439Z" style="fill:white;fill-rule:nonzero;"/>
            </g>
            <g transform="matrix(0.0415355,-1.106e-33,-1.106e-33,-0.0415355,-128.643,477.346)">
                <path d="M6200,8426C6200,8418 6194,8407 6186,8403C6179,8399 6170,8384 6166,8370C6159,8346 6160,8346 6184,8374L6209,8404L6212,8352C6214,8323 6219,8301 6224,8302C6230,8304 6233,8324 6231,8348C6228,8395 6230,8397 6265,8374C6301,8350 6295,8371 6257,8401C6208,8439 6200,8443 6200,8426Z" style="fill:white;fill-rule:nonzero;"/>
            </g>
            <g transform="matrix(0.0415355,-1.106e-33,-1.106e-33,-0.0415355,-128.643,477.346)">
                <path d="M5962,8398C5955,8385 5945,8367 5938,8358C5928,8344 5932,8336 5965,8304C5987,8284 6006,8272 6008,8278C6010,8284 6024,8307 6040,8329L6069,8368L6035,8394C5994,8426 5977,8427 5962,8398ZM6040,8360C6040,8347 6008,8310 5996,8310C5989,8310 5975,8319 5966,8329C5950,8347 5950,8350 5965,8379L5981,8410L6010,8388C6027,8376 6040,8364 6040,8360Z" style="fill:white;fill-rule:nonzero;"/>
            </g>
            <g transform="matrix(0.0415355,-1.106e-33,-1.106e-33,-0.0415355,-128.643,477.346)">
                <path d="M6081,8388C6086,8370 6090,8343 6090,8328C6090,8280 6117,8295 6130,8351C6144,8407 6137,8428 6119,8384L6107,8355L6097,8388C6084,8430 6069,8430 6081,8388Z" style="fill:white;fill-rule:nonzero;"/>
            </g>
            <g transform="matrix(0.0415355,-1.106e-33,-1.106e-33,-0.0415355,-128.643,477.346)">
                <path d="M4976,8374C4955,8354 4956,8351 4979,8357C4996,8361 4999,8357 4998,8331C4997,8313 5002,8294 5008,8288C5020,8276 5102,8288 5098,8302C5094,8313 5090,8313 5054,8304C5021,8296 5016,8303 5018,8350C5021,8394 5005,8403 4976,8374Z" style="fill:white;fill-rule:nonzero;"/>
            </g>
            <g transform="matrix(0.0415355,-1.106e-33,-1.106e-33,-0.0415355,-128.643,477.346)">
                <path d="M3983,8336C3986,8328 3994,8304 4001,8281C4008,8258 4019,8240 4027,8240C4035,8240 4040,8243 4038,8248C4037,8252 4027,8276 4016,8303C4006,8329 3993,8350 3988,8350C3982,8350 3980,8344 3983,8336Z" style="fill:white;fill-rule:nonzero;"/>
            </g>
            <g transform="matrix(0.0415355,-1.106e-33,-1.106e-33,-0.0415355,-128.643,477.346)">
                <path d="M4890,7534C4898,7530 4916,7523 4930,7518L4955,7508L4925,7485C4882,7450 4899,7446 4950,7480L4994,7509L4964,7520C4933,7532 4865,7545 4890,7534Z" style="fill:white;fill-rule:nonzero;"/>
            </g>
            <g transform="matrix(0.0415355,-1.106e-33,-1.106e-33,-0.0415355,-128.643,477.346)">
                <path d="M4772,7491L4751,7462L4790,7431C4839,7391 4863,7391 4825,7430C4803,7453 4800,7460 4813,7460C4822,7460 4830,7465 4830,7471C4830,7478 4820,7480 4804,7476C4781,7470 4780,7471 4790,7491C4808,7523 4796,7523 4772,7491Z" style="fill:white;fill-rule:nonzero;"/>
            </g>
            <g transform="matrix(0.0415355,-1.106e-33,-1.106e-33,-0.0415355,-128.643,477.346)">
                <path d="M4878,7498C4876,7485 4877,7459 4881,7440C4886,7410 4888,7414 4889,7463C4890,7521 4885,7537 4878,7498Z" style="fill:white;fill-rule:nonzero;"/>
            </g>
            <g transform="matrix(0.0415355,-1.106e-33,-1.106e-33,-0.0415355,-128.643,477.346)">
                <path d="M4667,7481C4658,7465 4650,7447 4650,7442C4650,7429 4697,7395 4728,7386C4763,7375 4754,7397 4718,7409L4685,7421L4710,7441L4735,7460L4706,7450C4670,7437 4664,7443 4679,7476C4695,7513 4688,7516 4667,7481Z" style="fill:white;fill-rule:nonzero;"/>
            </g>
            <g transform="matrix(0.0415355,-1.106e-33,-1.106e-33,-0.0415355,-128.643,477.346)">
                <path d="M4442,7435C4444,7432 4459,7429 4473,7428C4503,7425 4508,7409 4485,7390C4462,7371 4466,7347 4490,7355C4514,7363 4516,7353 4493,7328C4467,7300 4494,7307 4524,7337C4551,7364 4549,7375 4517,7382C4500,7385 4500,7386 4519,7407C4531,7419 4540,7432 4540,7435C4540,7438 4517,7440 4488,7440C4460,7440 4439,7438 4442,7435Z" style="fill:white;fill-rule:nonzero;"/>
            </g>
            <g transform="matrix(0.0415355,-1.106e-33,-1.106e-33,-0.0415355,-128.643,477.346)">
                <path d="M4575,7404C4567,7359 4577,7348 4615,7358C4659,7370 4659,7390 4615,7383C4580,7377 4580,7378 4589,7403C4595,7418 4595,7432 4591,7435C4586,7437 4579,7424 4575,7404Z" style="fill:white;fill-rule:nonzero;"/>
            </g>
            <g transform="matrix(0.0415355,-1.106e-33,-1.106e-33,-0.0415355,-128.643,477.346)">
                <path d="M4445,7366C4450,7318 4456,7302 4464,7311C4466,7313 4462,7338 4454,7365L4440,7415L4445,7366Z" style="fill:white;fill-rule:nonzero;"/>
            </g>
            <g transform="matrix(0.0415355,-1.106e-33,-1.106e-33,-0.0415355,-128.643,477.346)">
                <path d="M4904,7356C4899,7343 4895,7342 4883,7351C4873,7360 4864,7360 4845,7350C4832,7343 4814,7340 4804,7344C4794,7348 4783,7344 4775,7333C4764,7319 4758,7318 4737,7327C4715,7337 4710,7336 4697,7317C4685,7298 4681,7297 4666,7309C4652,7321 4648,7321 4636,7305C4628,7294 4616,7289 4606,7293C4594,7298 4586,7292 4578,7275C4565,7247 4558,7245 4528,7261C4513,7269 4505,7269 4496,7260C4488,7251 4489,7249 4500,7251C4508,7253 4526,7248 4539,7241C4561,7229 4565,7230 4581,7249C4590,7260 4605,7268 4613,7265C4620,7262 4633,7266 4640,7274C4647,7284 4661,7288 4674,7284C4687,7281 4701,7285 4708,7293C4715,7301 4730,7305 4745,7302C4759,7300 4777,7303 4785,7310C4793,7317 4807,7319 4816,7316C4825,7312 4838,7314 4844,7319C4850,7324 4866,7328 4880,7329C4925,7330 4980,7342 4980,7351C4980,7356 4974,7360 4968,7360C4961,7360 4945,7363 4933,7366C4917,7370 4908,7367 4904,7356Z" style="fill:white;fill-rule:nonzero;"/>
            </g>
            <g transform="matrix(0.0415355,-1.106e-33,-1.106e-33,-0.0415355,-128.643,477.346)">
                <path d="M2590,7224C2584,7208 2577,7188 2574,7180C2562,7146 2551,7069 2556,7055C2566,7030 2577,7047 2578,7092C2579,7116 2587,7159 2596,7189C2612,7245 2608,7273 2590,7224Z" style="fill:white;fill-rule:nonzero;"/>
            </g>
            <g transform="matrix(0.0415355,-1.106e-33,-1.106e-33,-0.0415355,-128.643,477.346)">
                <path d="M7356,7175C7352,7156 7338,7127 7325,7111C7311,7095 7300,7079 7300,7075C7300,7071 7320,7070 7345,7072C7389,7077 7390,7077 7400,7041C7405,7021 7410,6999 7410,6993C7410,6986 7415,6980 7421,6980C7429,6980 7431,6997 7426,7034C7420,7088 7420,7089 7447,7092C7465,7094 7476,7102 7478,7113C7481,7128 7478,7131 7461,7125C7447,7121 7437,7125 7428,7139C7409,7169 7390,7165 7390,7131C7390,7110 7384,7101 7368,7097C7356,7093 7345,7092 7343,7094C7342,7095 7349,7114 7360,7135C7381,7176 7386,7210 7371,7210C7366,7210 7359,7194 7356,7175Z" style="fill:white;fill-rule:nonzero;"/>
            </g>
            <g transform="matrix(0.0415355,-1.106e-33,-1.106e-33,-0.0415355,-128.643,477.346)">
                <path d="M5636,7131C5632,7125 5632,7120 5637,7119C5768,7111 5810,7099 5790,7075C5783,7067 5763,7058 5744,7054C5712,7048 5692,7034 5702,7024C5705,7022 5726,7027 5750,7035C5773,7043 5796,7050 5801,7050C5806,7050 5801,7027 5790,6998C5778,6965 5774,6942 5780,6936C5786,6930 5791,6932 5795,6941C5816,6999 5840,7075 5840,7085C5840,7109 5649,7152 5636,7131Z" style="fill:white;fill-rule:nonzero;"/>
            </g>
            <g transform="matrix(0.0415355,-1.106e-33,-1.106e-33,-0.0415355,-128.643,477.346)">
                <path d="M1443,7112C1440,7099 1430,7090 1419,7090C1409,7090 1398,7086 1395,7080C1392,7075 1396,7070 1405,7070C1416,7070 1420,7065 1416,7055C1413,7047 1415,7040 1419,7040C1424,7040 1430,7046 1433,7054C1436,7062 1454,7070 1472,7073L1505,7077L1472,7078C1442,7080 1440,7082 1450,7101C1457,7112 1459,7125 1455,7128C1452,7131 1447,7124 1443,7112Z" style="fill:white;fill-rule:nonzero;"/>
            </g>
            <g transform="matrix(0.0415355,-1.106e-33,-1.106e-33,-0.0415355,-128.643,477.346)">
                <path d="M1620,7103C1599,7093 1598,7090 1613,7084C1627,7079 1628,7075 1619,7064C1612,7055 1611,7050 1618,7050C1623,7050 1630,7056 1633,7064C1636,7072 1648,7080 1660,7082C1680,7085 1680,7086 1663,7100C1648,7113 1641,7113 1620,7103Z" style="fill:white;fill-rule:nonzero;"/>
            </g>
            <g transform="matrix(0.0415355,-1.106e-33,-1.106e-33,-0.0415355,-128.643,477.346)">
                <path d="M4213,7108C4162,7097 4155,7079 4205,7087C4224,7090 4240,7089 4240,7084C4240,7080 4222,7055 4200,7029C4178,7003 4160,6979 4160,6977C4160,6972 4256,6960 4320,6957C4363,6955 4377,6972 4335,6976C4264,6982 4210,6993 4210,7002C4210,7007 4226,7031 4246,7055C4266,7079 4279,7104 4275,7110C4268,7121 4270,7121 4213,7108Z" style="fill:white;fill-rule:nonzero;"/>
            </g>
            <g transform="matrix(0.0415355,-1.106e-33,-1.106e-33,-0.0415355,-128.643,477.346)">
                <path d="M4780,7104C4780,7093 4785,7090 4798,7095C4832,7108 4835,7104 4838,7051C4841,6995 4842,6994 4894,7015C4910,7022 4911,7021 4901,7002C4894,6990 4892,6980 4894,6980C4897,6980 4906,6994 4915,7010C4928,7036 4929,7040 4916,7040C4908,7040 4898,7036 4895,7030C4892,7025 4880,7020 4869,7020C4852,7020 4850,7026 4852,7060C4854,7106 4851,7111 4810,7116C4788,7119 4780,7116 4780,7104Z" style="fill:white;fill-rule:nonzero;"/>
            </g>
            <g transform="matrix(0.0415355,-1.106e-33,-1.106e-33,-0.0415355,-128.643,477.346)">
                <path d="M6220,7078C6220,7067 6320,6900 6326,6900C6332,6900 6279,6997 6243,7050C6230,7069 6220,7081 6220,7078Z" style="fill:white;fill-rule:nonzero;"/>
            </g>
            <g transform="matrix(0.0415355,-1.106e-33,-1.106e-33,-0.0415355,-128.643,477.346)">
                <path d="M1703,6984C1691,6971 1685,6960 1690,6960C1695,6960 1700,6952 1703,6943C1706,6928 1709,6930 1718,6951C1724,6966 1733,6979 1738,6981C1744,6983 1743,6990 1736,6996C1727,7005 1718,7001 1703,6984Z" style="fill:white;fill-rule:nonzero;"/>
            </g>
            <g transform="matrix(0.0415355,-1.106e-33,-1.106e-33,-0.0415355,-128.643,477.346)">
                <path d="M1511,6979C1510,6970 1503,6960 1495,6956C1487,6953 1480,6947 1480,6942C1480,6928 1520,6935 1537,6953C1553,6969 1553,6970 1538,6970C1529,6970 1519,6976 1517,6983C1513,6990 1511,6989 1511,6979Z" style="fill:white;fill-rule:nonzero;"/>
            </g>
            <g transform="matrix(0.0415355,-1.106e-33,-1.106e-33,-0.0415355,-128.643,477.346)">
                <path d="M3264,6926C3216,6851 3172,6662 3200,6645C3210,6639 3212,6644 3207,6668C3200,6705 3240,6856 3271,6909C3295,6949 3289,6963 3264,6926Z" style="fill:white;fill-rule:nonzero;"/>
            </g>
            <g transform="matrix(0.0415355,-1.106e-33,-1.106e-33,-0.0415355,-128.643,477.346)">
                <path d="M4620,6929C4620,6923 4627,6920 4635,6923C4643,6927 4661,6917 4676,6900C4698,6877 4709,6872 4733,6877C4762,6883 4762,6882 4758,6848C4753,6801 4773,6783 4787,6821C4796,6844 4795,6850 4785,6850C4777,6850 4770,6860 4768,6873C4766,6891 4760,6894 4737,6892C4717,6890 4701,6897 4683,6914C4657,6940 4620,6949 4620,6929Z" style="fill:white;fill-rule:nonzero;"/>
            </g>
            <g transform="matrix(0.0415355,-1.106e-33,-1.106e-33,-0.0415355,-128.643,477.346)">
                <path d="M6111,6927C6110,6915 6193,6810 6231,6775C6250,6757 6242,6771 6209,6811C6179,6847 6145,6890 6133,6906C6121,6922 6111,6931 6111,6927Z" style="fill:white;fill-rule:nonzero;"/>
            </g>
            <g transform="matrix(0.0415355,-1.106e-33,-1.106e-33,-0.0415355,-128.643,477.346)">
                <path d="M1380,6905C1380,6895 1372,6878 1363,6867C1346,6848 1346,6847 1363,6853C1374,6857 1380,6854 1380,6845C1380,6837 1385,6830 1390,6830C1396,6830 1400,6840 1400,6852C1400,6864 1408,6882 1418,6893C1427,6904 1429,6910 1422,6906C1415,6902 1403,6904 1395,6910C1383,6920 1380,6919 1380,6905Z" style="fill:white;fill-rule:nonzero;"/>
            </g>
            <g transform="matrix(0.0415355,-1.106e-33,-1.106e-33,-0.0415355,-128.643,477.346)">
                <path d="M3053,6884C3050,6876 3052,6855 3058,6837C3068,6805 3068,6806 3069,6853C3070,6901 3064,6913 3053,6884Z" style="fill:white;fill-rule:nonzero;"/>
            </g>
            <g transform="matrix(0.0415355,-1.106e-33,-1.106e-33,-0.0415355,-128.643,477.346)">
                <path d="M3140,6871C3127,6846 3127,6753 3140,6745C3146,6741 3148,6755 3144,6784C3140,6808 3142,6842 3148,6859C3160,6894 3156,6900 3140,6871Z" style="fill:white;fill-rule:nonzero;"/>
            </g>
            <g transform="matrix(0.0415355,-1.106e-33,-1.106e-33,-0.0415355,-128.643,477.346)">
                <path d="M1430,6761C1406,6739 1406,6738 1427,6744C1443,6749 1450,6746 1453,6733C1456,6721 1458,6724 1459,6742C1459,6757 1468,6773 1478,6779C1493,6788 1493,6789 1475,6787C1464,6786 1444,6775 1430,6761Z" style="fill:white;fill-rule:nonzero;"/>
            </g>
            <g transform="matrix(0.0415355,-1.106e-33,-1.106e-33,-0.0415355,-128.643,477.346)">
                <path d="M1590,6757C1590,6748 1582,6739 1573,6737C1556,6733 1556,6732 1573,6731C1587,6730 1590,6725 1585,6709C1580,6694 1581,6690 1589,6694C1595,6698 1600,6707 1600,6715C1600,6722 1614,6733 1630,6739C1663,6750 1672,6765 1640,6755C1628,6751 1613,6754 1605,6760C1593,6770 1590,6769 1590,6757Z" style="fill:white;fill-rule:nonzero;"/>
            </g>
            <g transform="matrix(0.0415355,-1.106e-33,-1.106e-33,-0.0415355,-128.643,477.346)">
                <path d="M4534,6743C4537,6733 4542,6713 4546,6698C4553,6666 4566,6663 4591,6686C4612,6705 4630,6697 4630,6670C4630,6640 4645,6639 4670,6665C4703,6700 4710,6696 4710,6645C4710,6601 4722,6585 4734,6616C4737,6624 4736,6628 4730,6625C4724,6621 4720,6635 4720,6659C4720,6710 4703,6721 4674,6687C4647,6655 4640,6654 4640,6679C4640,6713 4616,6722 4587,6699L4560,6679L4554,6719C4550,6742 4543,6760 4538,6760C4533,6760 4531,6752 4534,6743Z" style="fill:white;fill-rule:nonzero;"/>
            </g>
            <g transform="matrix(0.0415355,-1.106e-33,-1.106e-33,-0.0415355,-128.643,477.346)">
                <path d="M6033,6737C6139,6669 6237,6610 6245,6610C6251,6610 6207,6642 6148,6680C6089,6719 6035,6750 6028,6749C6020,6749 6023,6744 6033,6737Z" style="fill:white;fill-rule:nonzero;"/>
            </g>
            <g transform="matrix(0.0415355,-1.106e-33,-1.106e-33,-0.0415355,-128.643,477.346)">
                <path d="M7300,6051C7266,6040 7220,6015 7192,5991C7173,5975 7170,5962 7171,5913C7173,5831 7179,5800 7196,5800C7215,5800 7214,5795 7182,5747C7141,5687 7139,5682 7148,5676C7153,5673 7172,5694 7191,5723C7209,5752 7226,5768 7227,5760C7235,5698 7242,5670 7251,5670C7256,5670 7259,5687 7258,5708C7254,5764 7271,5760 7309,5697C7327,5666 7347,5643 7352,5646C7360,5651 7336,5699 7292,5768C7279,5788 7279,5790 7293,5784C7302,5781 7331,5789 7357,5802L7405,5825L7405,5930C7405,5988 7401,6041 7397,6048C7388,6061 7340,6063 7300,6051ZM7380,6025C7380,6005 7342,5930 7332,5930C7328,5930 7312,5938 7297,5949L7269,5967L7307,5983C7328,5992 7337,5999 7327,5999C7317,6000 7295,5993 7279,5984C7262,5976 7243,5971 7237,5973C7226,5977 7292,6010 7310,6010C7314,6010 7320,6017 7324,6025C7331,6045 7380,6045 7380,6025ZM7286,5927L7348,5902L7361,5929C7374,5954 7375,5953 7378,5896C7380,5849 7378,5835 7363,5825C7340,5808 7327,5816 7333,5846C7335,5858 7333,5874 7329,5881C7319,5897 7305,5847 7314,5825C7318,5814 7313,5810 7292,5811C7234,5814 7205,5825 7203,5845C7202,5856 7198,5887 7194,5914C7186,5970 7181,5970 7286,5927Z" style="fill:white;fill-rule:nonzero;"/>
            </g>
            <g transform="matrix(0.0415355,-1.106e-33,-1.106e-33,-0.0415355,-128.643,477.346)">
                <path d="M7220,5910C7220,5905 7225,5900 7230,5900C7236,5900 7240,5905 7240,5910C7240,5916 7236,5920 7230,5920C7225,5920 7220,5916 7220,5910Z" style="fill:white;fill-rule:nonzero;"/>
            </g>
            <g transform="matrix(0.0415355,-1.106e-33,-1.106e-33,-0.0415355,-128.643,477.346)">
                <path d="M7260,5890C7260,5885 7265,5880 7270,5880C7276,5880 7280,5885 7280,5890C7280,5896 7276,5900 7270,5900C7265,5900 7260,5896 7260,5890Z" style="fill:white;fill-rule:nonzero;"/>
            </g>
            <g transform="matrix(0.0415355,-1.106e-33,-1.106e-33,-0.0415355,-128.643,477.346)">
                <path d="M6735,5784C6724,5776 6708,5765 6700,5760C6692,5755 6688,5748 6692,5745C6700,5736 6770,5778 6770,5791C6770,5804 6758,5802 6735,5784Z" style="fill:white;fill-rule:nonzero;"/>
            </g>
            <g transform="matrix(0.0415355,-1.106e-33,-1.106e-33,-0.0415355,-128.643,477.346)">
                <path d="M6880,5777C6880,5769 6866,5759 6848,5755C6830,5751 6812,5746 6808,5745C6803,5744 6793,5742 6784,5741C6776,5741 6772,5735 6775,5730C6779,5724 6801,5722 6831,5726L6880,5733L6854,5687C6840,5661 6830,5630 6832,5618C6835,5600 6840,5606 6853,5645C6863,5673 6878,5704 6886,5715C6901,5735 6902,5734 6928,5702C6968,5654 6975,5675 6938,5727C6898,5782 6880,5798 6880,5777Z" style="fill:white;fill-rule:nonzero;"/>
            </g>
            <g transform="matrix(0.0415355,-1.106e-33,-1.106e-33,-0.0415355,-128.643,477.346)">
                <path d="M2048,5713C2039,5675 2033,5644 2035,5642C2041,5635 2154,5677 2158,5688C2160,5694 2143,5708 2121,5720C2094,5733 2080,5747 2080,5760C2080,5802 2063,5777 2048,5713Z" style="fill:white;fill-rule:nonzero;"/>
            </g>
            <g transform="matrix(0.0415355,-1.106e-33,-1.106e-33,-0.0415355,-128.643,475.346)">
                <path d="M3461,5739C3438,5715 3420,5690 3420,5685C3420,5679 3440,5654 3465,5630C3490,5606 3510,5580 3510,5573C3510,5566 3515,5560 3520,5560C3541,5560 3529,5591 3494,5630C3456,5672 3457,5673 3504,5670C3524,5669 3531,5672 3528,5682C3525,5689 3511,5695 3497,5695C3457,5696 3454,5707 3485,5740C3501,5756 3511,5773 3507,5776C3504,5779 3483,5763 3461,5739Z" style="fill:white;fill-rule:nonzero;"/>
            </g>
            <g transform="matrix(0.0415355,-1.106e-33,-1.106e-33,-0.0415355,-128.643,477.346)">
                <path d="M5444,5766C5441,5758 5430,5725 5420,5693C5404,5639 5402,5637 5395,5663C5388,5688 5370,5702 5370,5681C5370,5659 5393,5610 5403,5610C5421,5611 5494,5679 5486,5687C5482,5691 5470,5689 5460,5682C5442,5671 5440,5672 5440,5692C5441,5705 5447,5726 5455,5740C5463,5754 5469,5768 5470,5773C5470,5786 5450,5780 5444,5766Z" style="fill:white;fill-rule:nonzero;"/>
            </g>
            <g transform="matrix(0.0415355,-1.106e-33,-1.106e-33,-0.0415355,-128.643,475.346)">
                <path d="M3263,5756C3266,5748 3272,5699 3276,5646C3280,5582 3287,5551 3294,5553C3300,5555 3304,5572 3302,5589C3299,5619 3300,5621 3322,5615C3335,5611 3356,5601 3369,5593C3386,5582 3395,5581 3403,5589C3411,5597 3402,5605 3372,5617C3322,5639 3319,5652 3362,5671C3403,5689 3408,5706 3374,5714C3359,5718 3331,5732 3311,5746C3271,5773 3255,5777 3263,5756ZM3344,5704C3362,5691 3362,5690 3336,5680C3295,5665 3290,5667 3290,5700C3290,5731 3302,5732 3344,5704Z" style="fill:white;fill-rule:nonzero;"/>
            </g>
            <g transform="matrix(0.0415355,-1.106e-33,-1.106e-33,-0.0415355,-128.643,475.346)">
                <path d="M3615,5727L3566,5684L3611,5653C3636,5636 3662,5615 3669,5606C3676,5597 3687,5593 3693,5597C3699,5601 3683,5621 3654,5646L3605,5689L3645,5729C3697,5783 3677,5781 3615,5727Z" style="fill:white;fill-rule:nonzero;"/>
            </g>
            <g transform="matrix(0.0415355,-1.106e-33,-1.106e-33,-0.0415355,-128.643,477.346)">
                <path d="M5008,5747C5015,5738 5024,5697 5027,5656C5030,5614 5037,5580 5043,5580C5048,5580 5050,5590 5046,5603C5042,5621 5049,5631 5090,5659C5118,5678 5140,5696 5140,5700C5140,5704 5112,5718 5078,5731C5043,5744 5011,5757 5005,5759C5000,5761 5001,5756 5008,5747ZM5099,5704C5105,5699 5061,5661 5049,5660C5045,5660 5040,5674 5038,5691C5033,5721 5034,5722 5063,5716C5080,5713 5096,5707 5099,5704Z" style="fill:white;fill-rule:nonzero;"/>
            </g>
            <g transform="matrix(0.0415355,-1.106e-33,-1.106e-33,-0.0415355,-128.643,477.346)">
                <path d="M1824,5719C1774,5666 1762,5664 1728,5702C1704,5729 1701,5730 1711,5710C1718,5696 1743,5656 1767,5621C1790,5586 1810,5554 1810,5549C1810,5544 1815,5540 1820,5540C1838,5540 1830,5564 1799,5605L1769,5645L1820,5688C1867,5729 1881,5750 1862,5750C1857,5750 1841,5736 1824,5719Z" style="fill:white;fill-rule:nonzero;"/>
            </g>
            <g transform="matrix(0.0415355,-1.106e-33,-1.106e-33,-0.0415355,-128.643,475.346)">
                <path d="M3860,5720C3848,5712 3850,5710 3870,5709C3911,5707 3936,5703 3964,5696C3983,5691 3990,5693 3990,5704C3990,5727 3890,5739 3860,5720Z" style="fill:white;fill-rule:nonzero;"/>
            </g>
            <g transform="matrix(0.0415355,-1.106e-33,-1.106e-33,-0.0415355,-128.643,477.346)">
                <path d="M6600,5726C6600,5723 6612,5691 6626,5654C6642,5614 6656,5592 6662,5598C6668,5604 6661,5629 6644,5664C6621,5713 6600,5742 6600,5726Z" style="fill:white;fill-rule:nonzero;"/>
            </g>
            <g transform="matrix(0.0415355,-1.106e-33,-1.106e-33,-0.0415355,-128.643,477.346)">
                <path d="M6691,5678C6691,5645 6694,5620 6700,5620C6706,5620 6710,5631 6710,5645C6710,5664 6717,5671 6742,5678C6791,5690 6791,5712 6742,5704C6708,5699 6701,5701 6697,5716C6694,5727 6692,5709 6691,5678Z" style="fill:white;fill-rule:nonzero;"/>
            </g>
            <g transform="matrix(0.0415355,-1.106e-33,-1.106e-33,-0.0415355,-128.643,475.346)">
                <path d="M4018,5663C4015,5611 4005,5605 3912,5598C3865,5595 3865,5595 3859,5630C3854,5665 3853,5665 3846,5638C3842,5623 3841,5603 3844,5592C3850,5574 3858,5572 3933,5577C3978,5579 4020,5583 4026,5585C4039,5589 4044,5696 4031,5704C4025,5708 4020,5691 4018,5663Z" style="fill:white;fill-rule:nonzero;"/>
            </g>
            <g transform="matrix(0.0415355,-1.106e-33,-1.106e-33,-0.0415355,-128.643,477.346)">
                <path d="M6560,5687C6560,5680 6542,5656 6520,5635L6480,5596L6480,5638C6480,5661 6476,5680 6470,5680C6459,5680 6456,5552 6466,5526C6477,5498 6486,5509 6482,5543C6479,5571 6484,5581 6512,5605L6545,5633L6548,5597C6554,5532 6570,5557 6570,5630C6570,5669 6568,5700 6565,5700C6562,5700 6560,5694 6560,5687Z" style="fill:white;fill-rule:nonzero;"/>
            </g>
            <g transform="matrix(0.0415355,-1.106e-33,-1.106e-33,-0.0415355,-128.643,475.346)">
                <path d="M3920,5665C3910,5654 3910,5646 3918,5638C3933,5623 3962,5636 3958,5657C3954,5680 3936,5684 3920,5665Z" style="fill:white;fill-rule:nonzero;"/>
            </g>
            <g transform="matrix(0.0415355,-1.106e-33,-1.106e-33,-0.0415355,-128.643,477.346)">
                <path d="M4878,5648C4885,5641 4890,5608 4890,5568C4890,5527 4894,5500 4901,5500C4907,5500 4910,5514 4908,5533C4905,5562 4909,5567 4943,5582C4963,5592 4987,5597 4995,5594C5003,5590 5010,5592 5010,5597C5010,5608 4905,5660 4883,5660C4870,5660 4869,5657 4878,5648ZM4939,5621C4950,5614 4949,5610 4932,5601C4921,5595 4909,5590 4907,5590C4903,5590 4904,5611 4909,5628C4911,5633 4925,5629 4939,5621Z" style="fill:white;fill-rule:nonzero;"/>
            </g>
            <g transform="matrix(0.0415355,-1.106e-33,-1.106e-33,-0.0415355,-128.643,477.346)">
                <path d="M1622,5633C1630,5623 1643,5582 1650,5542C1657,5502 1668,5466 1673,5463C1679,5459 1680,5471 1676,5493C1670,5523 1673,5531 1692,5544C1712,5558 1716,5558 1732,5543C1742,5534 1753,5530 1757,5533C1760,5537 1761,5541 1759,5543C1757,5545 1725,5569 1688,5598C1619,5651 1595,5664 1622,5633ZM1678,5587C1685,5579 1685,5569 1680,5560C1670,5543 1665,5547 1656,5578C1648,5602 1661,5608 1678,5587Z" style="fill:white;fill-rule:nonzero;"/>
            </g>
            <g transform="matrix(0.0415355,-1.106e-33,-1.106e-33,-0.0415355,-128.643,477.346)">
                <path d="M6382,5611C6364,5589 6350,5566 6350,5561C6350,5549 6389,5537 6411,5542C6429,5546 6425,5499 6403,5457C6393,5437 6391,5425 6399,5417C6406,5410 6411,5412 6416,5426C6419,5436 6428,5459 6436,5477C6444,5494 6450,5519 6450,5533C6450,5558 6427,5575 6409,5564C6403,5561 6392,5561 6384,5564C6372,5569 6374,5576 6396,5605C6433,5654 6421,5659 6382,5611Z" style="fill:white;fill-rule:nonzero;"/>
            </g>
            <g transform="matrix(0.0415355,-1.106e-33,-1.106e-33,-0.0415355,-128.643,477.346)">
                <path d="M4698,5567C4705,5558 4704,5535 4695,5490C4678,5412 4678,5410 4688,5410C4692,5410 4702,5444 4709,5486L4722,5562L4786,5558C4834,5555 4850,5557 4850,5567C4850,5577 4829,5580 4769,5580C4704,5580 4690,5577 4698,5567Z" style="fill:white;fill-rule:nonzero;"/>
            </g>
            <g transform="matrix(0.0415355,-1.106e-33,-1.106e-33,-0.0415355,-128.643,477.346)">
                <path d="M4752,5493C4775,5440 4787,5423 4796,5432C4803,5439 4749,5540 4738,5540C4734,5540 4740,5519 4752,5493Z" style="fill:white;fill-rule:nonzero;"/>
            </g>
            <g transform="matrix(0.0415355,-1.106e-33,-1.106e-33,-0.0415355,-128.643,477.346)">
                <path d="M1458,5504C1463,5493 1475,5452 1485,5413C1494,5373 1505,5340 1509,5340C1524,5341 1612,5428 1609,5439C1606,5446 1589,5437 1565,5415C1543,5396 1522,5380 1518,5380C1514,5380 1506,5399 1499,5423C1493,5446 1485,5476 1481,5489C1477,5503 1468,5516 1461,5518C1451,5521 1451,5517 1458,5504Z" style="fill:white;fill-rule:nonzero;"/>
            </g>
            <g transform="matrix(0.0415355,-1.106e-33,-1.106e-33,-0.0415355,-128.643,477.346)">
                <path d="M1301,5428C1239,5392 1247,5378 1310,5410C1333,5422 1354,5430 1356,5427C1358,5425 1354,5410 1345,5394C1337,5378 1330,5357 1330,5348C1330,5325 1324,5325 1288,5351C1272,5363 1257,5370 1254,5367C1248,5362 1364,5279 1410,5255C1433,5243 1440,5242 1440,5252C1440,5259 1420,5276 1396,5288C1353,5311 1352,5314 1357,5348C1360,5369 1369,5397 1376,5412C1406,5470 1382,5475 1301,5428Z" style="fill:white;fill-rule:nonzero;"/>
            </g>
            <g transform="matrix(0.0415355,-1.106e-33,-1.106e-33,-0.0415355,-128.643,477.346)">
                <path d="M2944,5313C2936,5292 2920,5257 2910,5235C2877,5165 2843,5076 2835,5041C2827,5004 2834,5005 2879,5044L2903,5065L2897,5030C2882,4943 2869,4827 2874,4823C2890,4807 2921,4863 2997,5049C3032,5137 3039,5197 3010,5169C2960,5122 2957,5122 2965,5175C2977,5261 2979,5350 2969,5350C2963,5350 2952,5333 2944,5313Z" style="fill:white;fill-rule:nonzero;"/>
            </g>
            <g transform="matrix(0.0415355,-1.106e-33,-1.106e-33,-0.0415355,-128.643,477.346)">
                <path d="M6198,5238C6203,5175 6220,5149 6220,5203C6220,5223 6223,5240 6228,5240C6232,5239 6249,5222 6265,5200C6295,5161 6320,5143 6320,5160C6320,5165 6307,5185 6290,5203C6257,5241 6253,5252 6273,5249C6296,5246 6310,5250 6310,5259C6310,5264 6293,5270 6273,5274C6252,5277 6226,5283 6214,5286C6194,5291 6193,5289 6198,5238Z" style="fill:white;fill-rule:nonzero;"/>
            </g>
            <g transform="matrix(0.0415355,-1.106e-33,-1.106e-33,-0.0415355,-128.643,477.346)">
                <path d="M4526,5065C4519,5038 4493,5032 4460,5050C4432,5065 4426,5046 4446,5004C4460,4974 4461,4962 4452,4937C4437,4897 4450,4883 4484,4905C4509,4922 4510,4921 4554,4885C4587,4859 4605,4850 4620,4855C4644,4862 4644,4868 4625,4894C4604,4922 4606,4935 4642,4975C4678,5016 4671,5030 4613,5030C4588,5030 4577,5037 4563,5060C4542,5097 4534,5098 4526,5065ZM4613,5004C4647,5012 4647,5008 4610,4970C4587,4946 4581,4933 4586,4915C4594,4881 4575,4883 4542,4920C4522,4941 4511,4947 4500,4940C4475,4924 4466,4929 4483,4948C4493,4958 4500,4971 4500,4976C4500,4981 4509,5000 4521,5019L4542,5053L4564,5025C4582,5002 4592,4998 4613,5004ZM4490,5006C4490,4998 4486,4988 4480,4985C4475,4982 4470,4981 4470,4984C4470,4986 4467,4995 4464,5004C4460,5015 4463,5020 4474,5020C4483,5020 4490,5014 4490,5006Z" style="fill:white;fill-rule:nonzero;"/>
            </g>
            <g transform="matrix(0.0415355,-1.106e-33,-1.106e-33,-0.0415355,-119.81,479.615)">
                <path d="M4930,4479C4930,4460 4926,4440 4921,4435C4910,4423 4919,4358 4931,4365C4935,4368 4936,4378 4933,4387C4928,4399 4931,4402 4941,4398C4983,4382 5000,4380 5000,4389C5000,4395 4988,4406 4973,4414L4945,4429L4978,4436C5022,4445 5027,4457 4993,4472C4978,4478 4957,4490 4948,4498C4931,4512 4930,4510 4930,4479ZM4970,4459C4970,4454 4963,4450 4955,4450C4947,4450 4940,4457 4940,4465C4940,4474 4946,4477 4955,4474C4963,4470 4970,4464 4970,4459Z" style="fill:white;fill-rule:nonzero;"/>
            </g>
            <g transform="matrix(0.0415355,-1.106e-33,-1.106e-33,-0.0415355,-119.81,479.615)">
                <path d="M4805,4472C4813,4452 4813,4449 4804,4393C4799,4363 4801,4350 4809,4350C4815,4350 4823,4357 4825,4365C4842,4418 4840,4417 4861,4391C4875,4374 4884,4370 4891,4377C4898,4384 4892,4398 4871,4421C4854,4439 4840,4460 4840,4466C4840,4472 4831,4480 4819,4483C4803,4487 4800,4485 4805,4472Z" style="fill:white;fill-rule:nonzero;"/>
            </g>
            <g transform="matrix(0.0415355,-1.106e-33,-1.106e-33,-0.0415355,-119.81,479.615)">
                <path d="M4550,4463C4550,4442 4621,4337 4630,4346C4641,4359 4660,4420 4660,4441C4660,4475 4641,4461 4634,4423L4627,4386L4589,4430C4567,4455 4550,4469 4550,4463Z" style="fill:white;fill-rule:nonzero;"/>
            </g>
            <g transform="matrix(0.0415355,-1.106e-33,-1.106e-33,-0.0415355,-119.81,479.615)">
                <path d="M4691,4402C4678,4368 4670,4337 4673,4333C4680,4326 4740,4337 4759,4349C4783,4364 4762,4381 4735,4368C4702,4353 4695,4363 4710,4399C4716,4415 4720,4437 4718,4447C4716,4458 4705,4440 4691,4402Z" style="fill:white;fill-rule:nonzero;"/>
            </g>
            <g transform="matrix(0.0415355,-1.106e-33,-1.106e-33,-0.0415355,-119.81,479.615)">
                <path d="M5094,4452C5098,4445 5121,4440 5146,4440C5171,4440 5211,4435 5236,4429C5281,4417 5302,4422 5284,4440C5270,4454 5085,4466 5094,4452Z" style="fill:white;fill-rule:nonzero;"/>
            </g>
            <g transform="matrix(0.0415355,-1.106e-33,-1.106e-33,-0.0415355,-119.81,479.615)">
                <path d="M4130,4417C4130,4402 4118,4367 4104,4339C4070,4272 4081,4264 4118,4329L4147,4380L4158,4354C4170,4329 4190,4329 4190,4356C4190,4380 4207,4371 4220,4340C4232,4311 4250,4299 4250,4320C4250,4326 4239,4353 4225,4381C4201,4427 4180,4438 4180,4404C4180,4396 4176,4390 4170,4390C4165,4390 4160,4394 4160,4398C4160,4403 4153,4415 4145,4426C4131,4444 4131,4444 4130,4417Z" style="fill:white;fill-rule:nonzero;"/>
            </g>
            <g transform="matrix(0.0415355,-1.106e-33,-1.106e-33,-0.0415355,-119.81,479.615)">
                <path d="M4301,4416L4279,4393L4319,4351C4341,4329 4361,4310 4363,4310C4370,4310 4410,4379 4410,4391C4410,4401 4351,4440 4334,4440C4328,4440 4313,4429 4301,4416ZM4369,4396C4379,4384 4375,4350 4364,4350C4350,4350 4310,4384 4310,4396C4310,4414 4354,4414 4369,4396Z" style="fill:white;fill-rule:nonzero;"/>
            </g>
            <g transform="matrix(0.0415355,-1.106e-33,-1.106e-33,-0.0415355,-119.81,479.615)">
                <path d="M4420,4437C4420,4430 4459,4331 4466,4322C4472,4314 4550,4372 4550,4384C4550,4395 4482,4440 4465,4440C4449,4440 4465,4418 4490,4405C4524,4387 4528,4375 4503,4365C4491,4361 4480,4366 4470,4379C4462,4390 4447,4410 4438,4422C4429,4435 4421,4441 4420,4437Z" style="fill:white;fill-rule:nonzero;"/>
            </g>
            <g transform="matrix(0.0415355,-1.106e-33,-1.106e-33,-0.0415355,-119.81,479.615)">
                <path d="M3783,4404C3780,4396 3781,4361 3786,4327C3797,4254 3810,4249 3878,4294C3917,4321 3919,4324 3905,4340C3896,4350 3867,4372 3839,4389C3797,4415 3788,4417 3783,4404ZM3846,4359C3865,4348 3880,4334 3880,4329C3880,4320 3821,4286 3815,4292C3807,4300 3798,4380 3805,4380C3809,4380 3828,4371 3846,4359Z" style="fill:white;fill-rule:nonzero;"/>
            </g>
            <g transform="matrix(0.0415355,-1.106e-33,-1.106e-33,-0.0415355,-119.81,479.615)">
                <path d="M3360,4391C3360,4386 3369,4360 3381,4333C3392,4307 3406,4274 3412,4260L3422,4235L3451,4270L3480,4304L3496,4282C3517,4251 3536,4255 3544,4291C3553,4336 3551,4360 3540,4360C3535,4360 3530,4349 3530,4336C3530,4301 3514,4295 3495,4322L3479,4345L3460,4320C3449,4306 3440,4291 3440,4287C3440,4268 3421,4293 3396,4345C3372,4397 3360,4412 3360,4391Z" style="fill:white;fill-rule:nonzero;"/>
            </g>
            <g transform="matrix(0.0415355,-1.106e-33,-1.106e-33,-0.0415355,-119.81,479.615)">
                <path d="M3617,4344L3579,4290L3632,4265C3698,4234 3704,4234 3724,4265C3748,4302 3744,4310 3700,4310C3678,4310 3660,4306 3660,4300C3660,4291 3674,4286 3693,4289C3697,4289 3700,4286 3700,4280C3700,4267 3684,4267 3643,4282C3606,4295 3603,4302 3626,4321C3640,4333 3670,4382 3670,4395C3670,4411 3651,4393 3617,4344Z" style="fill:white;fill-rule:nonzero;"/>
            </g>
            <g transform="matrix(0.0415355,-1.106e-33,-1.106e-33,-0.0415355,-119.81,479.615)">
                <path d="M3123,4363C3086,4361 3060,4354 3060,4348C3060,4341 3081,4339 3128,4343C3165,4347 3207,4350 3223,4350C3238,4350 3250,4355 3250,4360C3250,4366 3235,4369 3218,4368C3200,4367 3157,4365 3123,4363Z" style="fill:white;fill-rule:nonzero;"/>
            </g>
        </g>
    </g>
</svg>
